<svg width="461" height="646" viewBox="0 0 461 646" fill="none" xmlns="http://www.w3.org/2000/svg">
<path opacity="0.4" d="M-1.74323 84C27.7568 38 257.757 24 319.757 118.5C346.695 204.281 360.664 254.359 380.257 353L360.257 443L401.757 582.5C319.873 574.024 269.973 558.642 170.757 504C173.215 581.646 181.221 613.11 208.257 646L-4 646C-63.3267 616.247 -40.7117 589.214 -88.581 529.5C-85.6014 508.136 -74.5072 497.487 -47.5811 479.5C-26.487 445.341 -18.2691 423.153 -6.08099 381.5L-50.081 249.5L-58.581 168.5L-1.74323 84Z" fill="white"/>
<path d="M394.454 307.566L394.456 307.574C396.609 318.191 398.362 327.959 399.457 336.114C400.445 343.48 401.266 351.93 400.321 358.579L397.834 376.078L382.063 377.001C382.158 378.66 382.205 380.274 382.198 381.839C382.169 387.742 381.381 395.126 377.584 402.024C378.857 408.95 378.793 416.037 375.73 423.565C375.082 425.158 374.317 426.701 373.494 428.176C387.113 451.827 393.529 477.811 399.354 501.405L399.648 502.596C407.161 533.012 413.985 559.763 431.112 582.286L451.816 609.514L417.632 608.293C378.254 606.885 329.778 596.596 284.143 581.694C250.787 570.803 218.141 557.184 191.067 542.187C194.3 568.163 201.757 593.18 210.608 617.878C230.015 630.812 248.985 645.875 263.038 662.893C273.594 675.676 279.698 709.171 269.824 726.832C270.555 720.757 270.252 714.798 269.061 708.964C262.751 678.061 231.527 650.697 197.206 628.464C186.091 598.1 176.289 566.109 173.766 531.916C173.282 525.356 173.066 518.716 173.16 511.99C178.194 515.556 183.655 519.093 189.48 522.579C244.191 555.322 330.997 583.63 397.541 590.607C404.686 591.357 411.598 591.86 418.211 592.096C414.079 586.662 410.49 581.027 407.327 575.235C395.583 553.723 389.734 530.045 383.914 506.482C377.106 478.92 370.337 451.515 354.216 427.922C357.047 424.042 359.373 420.762 360.718 417.456C361.924 414.494 362.338 411.595 362.09 408.297C361.972 406.728 361.703 405.068 361.299 403.268L360.591 400.121L357.522 400.106C358.627 399.49 359.662 398.745 360.602 397.847C361.459 397.03 362.238 396.086 362.921 394.999C364.862 391.909 365.71 388.15 365.931 383.941C365.968 383.227 365.988 382.5 365.991 381.761C366.015 376.875 365.342 370.893 364.117 363.65L364.111 363.613L364 362L367.127 361.681C368.067 361.616 369.005 361.553 369.943 361.492C371.992 361.359 374.037 361.236 376.074 361.117L383.654 360.673L384.276 356.299C384.869 352.127 384.394 345.722 383.394 338.27C382.367 330.619 380.691 321.243 378.572 310.795L378.568 310.775L361.893 239.345L361.89 239.333C349.191 189.363 335.087 140.19 331.689 131.652C317.082 94.955 279.465 69.1929 249.244 58.7539C226.496 50.8961 183.995 44.6357 140.451 43.096C96.9991 41.5596 51.2236 44.6683 22.2611 56.3195C13.9686 59.6555 4.8686 67.8916 -3.84194 77.5685C-12.7276 87.4399 -21.8297 99.5307 -30.0758 111.468C-38.3333 123.422 -45.7999 135.32 -51.4142 144.86C-54.2209 149.63 -56.5797 153.835 -58.3507 157.183C-60.0473 160.39 -61.394 163.158 -61.9613 164.875C-63.0398 168.137 -63.4776 173.125 -63.6593 178.232C-63.8486 183.553 -63.7725 189.715 -63.5558 195.734C-63.1264 207.655 -62.1225 219.585 -61.395 223.7C-57.6792 244.723 -49.9686 263.92 -41.7013 284.504L-41.6743 284.571L-41.6712 284.578L-41.6587 284.61L-41.6561 284.616L-41.6428 284.649C-40.8649 286.586 -40.0819 288.535 -39.2964 290.501C-30.0995 313.515 -20.4056 339.055 -14.0735 372.21C-12.8501 378.616 -13.5998 387.36 -15.9301 397.516C-18.2342 407.559 -21.9641 418.486 -26.2563 429.027C-33.6325 447.143 -42.416 463.513 -47.9629 471.857C-50.7563 470.271 -54.2929 470.289 -57.0242 472.26C-60.0378 474.434 -61.1231 478.302 -59.7911 481.542C-61.126 482.414 -62.4696 483.365 -63.7935 484.36C-68.3902 487.812 -73.382 492.277 -77.9654 497.231C-82.5342 502.171 -86.8394 507.751 -89.9302 513.458C-93.1087 519.327 -95.137 525.691 -94.5599 532.414C-102.191 511.259 -97.7891 494.795 -89.8628 486.226C-85.4076 481.41 -80.6004 476.979 -75.9388 473.268C-74.6396 467.698 -71.3613 462.619 -66.507 459.117C-63.4251 456.893 -60.0519 455.521 -56.6279 454.903C-52.029 446.762 -46.3287 435.348 -41.2665 422.916C-37.181 412.882 -33.7749 402.82 -31.7265 393.892C-29.5728 384.505 -29.3974 378.367 -29.9926 375.25C-36.0266 343.656 -45.2507 319.275 -54.346 296.515C-55.1255 294.565 -55.9032 292.628 -56.682 290.689L-56.6849 290.682L-56.6875 290.676L-56.6906 290.668L-56.6942 290.659L-56.6948 290.657L-56.7008 290.642L-56.7026 290.638L-56.7134 290.611L-56.7145 290.608L-57.0254 289.834C-65.0983 269.737 -73.3445 249.208 -77.3545 226.521C-78.2931 221.211 -79.3201 208.312 -79.7521 196.317C-79.9764 190.088 -80.0641 183.507 -79.8559 177.656C-79.6776 172.644 -79.2398 165.507 -77.3491 159.788C-76.2919 156.59 -74.2989 152.671 -72.6764 149.605C-70.7621 145.986 -68.277 141.56 -65.3819 136.641C-59.5882 126.796 -51.9117 114.563 -43.4105 102.257C-34.9547 90.0158 -25.4132 77.3081 -15.8875 66.7257C-7.05642 56.9149 4.17461 46.1264 16.2124 41.2837C48.531 28.2824 97.2334 25.3509 141.023 26.8993C185.183 28.4607 229.55 34.8045 254.535 43.4352C287.407 54.7898 329.795 83.0715 346.747 125.659C350.622 135.394 364.992 185.738 377.597 235.339L377.597 235.341L377.6 235.352L377.639 235.506L394.404 307.318L394.454 307.566Z" fill="white"/>
<path opacity="0.5" d="M317.785 259.122L273.668 266.298C286.857 276.293 294.674 281.072 312.905 281.229L317.785 259.122Z" fill="white"/>
<g opacity="0.2">
<path d="M187.141 87.3395C210.764 70.4008 278.377 107.974 293.37 93.1316L244.058 63.4762C141.403 42.8725 60.1268 44.6988 17.7803 64.6003C-14.0411 96.9925 -51.4322 150.518 -56.6587 168.589C-61.2439 241.503 -42.6842 259.378 -33.4795 288.597C-16.4065 342.793 6.86056 363.755 -28.5381 448.804C1.137 415.028 25.835 371.615 31.4628 334.533C31.4628 334.533 -3.58117 283.32 3.31133 267.139C32.0802 199.604 90.2943 246.117 99.4279 265.666C103.362 274.087 117.207 401.727 141.879 468.064C218.87 544.398 284.286 564.803 408.214 586.177C388.978 553.189 374.158 489.468 360.984 446.544L348.66 429.302C336.632 428.749 329.61 426.522 316.613 419.176C325.876 408.804 333.158 404.314 350.828 399.295L359.497 389.739C362.654 379.06 361.559 373.007 357.129 362.154L325.507 364.869C319.038 365.589 314.614 370.64 306.535 380.73C286.66 386.249 279.233 392.923 269.592 408.301C145.768 363.353 155.257 300.184 159.039 265.294C164.899 211.247 215.857 201.45 227.654 164.516C232.996 147.791 173.094 97.4112 187.141 87.3395Z" fill="black"/>
<path d="M269.516 265.299C260.385 269.471 240.528 272.801 230.608 269.994L265.649 243.942L352.884 233.743L356.672 246.295C338.03 271.075 341.665 299.779 359.933 339.547L359.915 339.539C341.743 330.85 335.9 328.057 328.29 334.13C322.534 338.725 300.617 362.855 284.85 364.97C299.957 351.473 317.715 318.62 314.713 286.497L316.439 259.238L269.516 265.299Z" fill="black"/>
<path d="M50.8295 252.216L79.5323 270.763C88.5879 281.508 84.5742 313.707 86.5379 336.583L78.5999 346.753L65.9118 341.064C42.2139 313.537 26.9082 298.54 32.915 264.598L50.8295 252.216Z" fill="black"/>
<path d="M107.696 433.043C113.174 414.254 116.157 403.766 117.678 398.199C117.61 397.788 117.543 397.374 117.476 396.959C117.476 396.959 120.941 386.258 117.678 398.199C127.374 457.2 140.923 478.845 171.085 508.256C149.711 527.712 121.736 463.338 117.658 470.143C102.244 495.865 104.728 524.796 109.868 584.676C93.823 584.631 90.4672 492.132 107.696 433.043Z" fill="black"/>
</g>
<path d="M43.3101 227.784C28.4498 229.06 17.4644 237.37 10.3115 245.87C6.7262 250.13 4.03164 254.517 2.2197 258.274C1.3137 260.152 0.608971 261.913 0.123554 263.459C-0.336493 264.925 -0.68828 266.472 -0.682613 267.829C-0.644522 276.942 2.21349 286.087 6.35242 295.2C10.4897 304.308 16.0578 313.695 21.7406 323.246L21.8854 323.489C33.3326 342.728 43.7073 360.238 47.7841 382.324C54.7515 408.444 99.6053 411.648 105.875 390.38C107.041 386.423 106.908 383.684 106.733 380.089C106.689 379.184 106.643 378.224 106.613 377.177C106.465 371.861 105.998 365.687 105.356 359.376C104.073 346.758 102.068 333.374 100.415 324.799L100.016 322.731L98.0941 321.869C89.0372 317.809 87.3901 313.893 87.667 311.045C87.8373 309.294 88.5708 306.29 90.7594 304.502C105.775 292.232 90.2425 292.888 84.3472 299.547C81.3141 302.974 79.9713 306.459 79.6016 310.261C78.8522 317.968 84.0324 323.945 92.8357 328.344C94.362 336.675 96.1302 348.751 97.2942 360.196C97.3554 360.798 97.4209 361.424 97.4885 362.071C98.4268 371.049 99.7686 383.887 95.7524 388.658C85.5633 400.76 59.9658 392.63 55.9328 377.843C49.3945 353.869 40.424 338.795 29.2234 319.974L28.7045 319.102C22.9728 309.469 17.6489 300.475 13.7304 291.848C9.81352 283.225 7.45202 275.282 7.42073 267.795C7.42073 267.795 7.42114 267.751 7.43212 267.654C7.4434 267.554 7.46367 267.418 7.49777 267.244C7.56657 266.894 7.68132 266.44 7.85502 265.886C8.20283 264.778 8.75119 263.385 9.51846 261.794C11.0531 258.612 13.3859 254.802 16.5115 251.088C22.7721 243.648 31.9265 236.91 43.9546 235.862C58.7428 234.976 74.2747 245.678 84.005 256.164C86.886 259.824 87.1461 265.453 87.3236 269.292C87.4532 272.094 87.5387 273.943 88.5676 273.376C94.3919 270.165 95.7893 260.966 91.9469 253.222C84.9493 239.121 58.8081 226.824 43.4065 227.777L43.3583 227.78L43.3101 227.784Z" fill="#002D40"/>
<path d="M50.483 248.179C51.2835 248.11 52.0325 248.236 52.5223 248.338C62.0303 250.327 71.1523 257.488 77.9979 264.117C80.7797 266.811 83.8002 273.108 79.8788 274.8C72.8248 263.711 56.4827 256.266 51.0126 256.305C45.9249 257.877 39.4461 262.491 36.1402 266.694C32.1665 283.72 36.9221 295.704 44.5422 306.541C48.1015 311.602 51.8641 315.797 55.5748 319.935C60.4261 325.344 65.189 330.654 69.2938 337.673C71.5409 341.516 79.2756 343.26 82.1433 340.059C84.0123 337.972 83.9327 336.361 83.8679 335.048C83.8056 333.787 83.7568 332.801 85.4608 331.931C89.806 329.713 91.4996 341.596 89.2808 345.448C86.4438 350.374 80.8944 351.888 76.2748 351.531C71.641 351.174 67.2199 348.407 63.4516 343.987C60.9111 341.006 59.1094 338.353 57.3466 335.757C55.6302 333.23 53.9507 330.756 51.6618 328.088C51.002 327.319 50.3339 326.545 49.6609 325.765L49.66 325.764L49.6586 325.762C45.6745 321.145 41.5198 316.33 37.9136 311.202C29.3023 298.956 23.5188 284.504 28.3606 264.381C28.6807 263.05 29.5243 261.972 30.0095 261.39C34.8423 255.594 42.8025 248.838 50.483 248.179Z" fill="#002D40"/>
<path fill-rule="evenodd" clip-rule="evenodd" d="M321.299 279.581C320.197 279.543 319.099 279.494 318.007 279.432C320.412 274.574 321.664 268.925 322.018 262.895C323.689 262.913 325.331 262.973 326.936 263.081C329.18 260.71 329.81 259.128 328.937 255.501C315.207 255.204 302.299 256.258 290.117 258.686C298.925 254.705 309.783 251.855 321.616 252.693C299.322 245.268 278.414 258.076 266.709 265.247L266.152 265.587C271.67 274.603 294.197 286.143 314.299 287.402C316.61 307.905 305.146 340.861 285.465 364.239C309.934 349.261 329.266 298.125 321.299 279.581ZM313.883 263.111C313.42 269.523 311.801 274.741 309.11 278.614C298.562 277.228 288.564 274.274 279.282 268.527C289.786 266.095 302.187 263.815 313.883 263.111Z" fill="#002D40"/>
<path d="M67.2729 286.556C72.7149 285.337 76.9971 288.602 77.3436 292.639C70.3267 289.853 68.0975 295.466 67.7135 298.888C66.9181 305.975 71.8319 315.283 76.6221 323.713C64.7198 319.282 57.4743 303.629 59.7452 294.273C60.6653 290.483 63.2137 287.465 67.2729 286.556Z" fill="#002D40"/>
<path d="M253.912 304.593C266.216 313.704 310.543 301.087 310.965 290.207C298.144 298.763 266.355 307.435 253.912 304.593Z" fill="#002D40"/>
<path fill-rule="evenodd" clip-rule="evenodd" d="M361.893 239.345L378.568 310.775L378.572 310.795C380.691 321.243 382.367 330.619 383.394 338.27C384.394 345.722 384.869 352.127 384.276 356.299L383.654 360.673L376.074 361.117C373.105 361.29 370.12 361.474 367.127 361.681L364 362L364.111 363.613C365.34 370.872 366.015 376.866 365.991 381.761C365.966 386.855 365.191 391.385 362.921 394.999C361.487 397.281 359.634 398.929 357.522 400.106L360.591 400.121L361.299 403.268C362.553 408.848 362.497 413.085 360.718 417.456C359.373 420.762 357.047 424.042 354.216 427.922C370.337 451.515 377.106 478.92 383.914 506.482C391.301 536.389 398.735 566.483 418.211 592.096C343.452 589.424 230.554 552.649 173.16 511.99C172.577 553.774 183.958 592.275 197.206 628.464C238.005 654.894 274.428 688.573 269.824 726.832C246.906 666.429 154.202 620.661 118.173 602.874C114.267 600.946 111.027 599.346 108.614 598.092C76.3088 581.305 42.5404 563.423 12.72 543.997C-11.1643 528.438 -34.7996 510.052 -52.0992 491.057C-53.3779 491.845 -54.8538 492.847 -56.4933 494.078C-59.793 496.557 -63.4004 499.694 -66.8642 503.206C-40.3862 542.825 1.24391 567.605 41.3488 591.477L41.9012 591.806C60.5495 602.906 105.655 630.344 125.028 667.028C100.407 640.824 68.663 621.909 35.9121 602.394C-5.07933 577.969 -47.2781 552.667 -75.07 512.744C-76.6695 514.921 -78.0828 517.106 -79.2419 519.247C-81.3957 523.223 -82.4372 526.612 -82.5428 529.29C-56.9679 569.883 -19.106 599.313 40.6231 638.637C-11.2814 626.149 -67.0527 576.964 -93.7233 534.342L-94.5011 533.099L-94.6265 531.638C-95.1618 525.402 -92.9667 519.065 -89.9302 513.458C-86.8394 507.751 -82.5342 502.171 -77.9654 497.232C-73.382 492.277 -68.3902 487.812 -63.7934 484.36C-62.4696 483.365 -61.126 482.414 -59.7911 481.542C-61.1231 478.302 -60.0378 474.434 -57.0242 472.26C-54.2929 470.289 -50.7563 470.271 -47.9629 471.857C-42.416 463.513 -33.6325 447.143 -26.2563 429.028C-21.9641 418.486 -18.2342 407.559 -15.9301 397.516C-13.5998 387.36 -12.8501 378.616 -14.0735 372.21C-20.4056 339.055 -30.0995 313.515 -39.2964 290.501C-40.0819 288.535 -40.8649 286.586 -41.6428 284.649L-41.6561 284.616L-41.6587 284.61L-41.6712 284.578L-41.6743 284.571L-41.7013 284.504C-49.9685 263.92 -57.6792 244.723 -61.395 223.7C-62.1225 219.585 -63.1264 207.655 -63.5558 195.734C-63.7725 189.715 -63.8486 183.553 -63.6593 178.232C-63.4776 173.125 -63.0397 168.137 -61.9613 164.875C-61.394 163.158 -60.0473 160.39 -58.3507 157.183C-56.5797 153.835 -54.2209 149.63 -51.4142 144.86C-45.7999 135.32 -38.3333 123.422 -30.0758 111.468C-21.8297 99.5307 -12.7276 87.4399 -3.84195 77.5685C4.86859 67.8916 13.9686 59.6555 22.2611 56.3195C51.2236 44.6683 96.9991 41.5596 140.451 43.096C183.995 44.6357 226.496 50.8961 249.244 58.7539C279.465 69.1929 317.082 94.955 331.689 131.652C335.087 140.19 349.191 189.363 361.89 239.333L361.893 239.345ZM326.135 406.199C325.456 406.261 324.768 406.312 324.074 406.352C319.717 409.917 314.281 410.982 309.344 411.615C308.623 413.213 307.806 414.788 306.869 416.322C300.462 426.803 289.292 434.016 269.142 436.111C268.886 439.791 268.859 443.621 269.063 447.587C270.765 480.553 288.453 521.652 320.39 559.4C338.562 564.607 356.754 569.14 374.886 573.586C353.499 558.259 331.95 535.669 316.912 512.151C306.304 495.561 298.615 478.021 296.718 461.757C294.915 446.293 298.36 431.662 309.765 420.618L309.745 420.605L313.061 417.115C317.307 412.647 321.316 408.966 326.135 406.199ZM318.783 426.45L319.055 426.771C309.233 435.122 305.838 446.68 307.45 460.505C309.085 474.523 315.877 490.475 326.015 506.331C344.101 534.617 371.811 561.047 395.846 574.071C389.241 562.667 384.442 550.466 380.552 537.95C359.596 517.694 342.932 497.217 335.627 479.024C331.879 469.69 330.384 460.437 332.579 451.937C334.615 444.054 339.646 437.511 347.504 432.496C347.447 432.401 347.389 432.306 347.331 432.211C340.757 432.927 335.398 432.739 330.292 431.418C326.3 430.385 322.625 428.701 318.783 426.45ZM352.669 442.025C347.142 445.723 344.234 450.016 343.04 454.64C341.627 460.111 342.397 466.887 345.653 474.998C350.603 487.326 360.806 501.525 374.666 516.521C373.383 511.341 372.166 506.153 370.956 500.992C366.082 480.208 361.306 459.842 352.669 442.025ZM302.191 553.935C275.349 518.371 259.936 480.342 258.273 448.144C257.337 430.008 260.758 413.404 269.35 400.228C277.822 387.235 291.022 378.044 308.812 373.961C310.014 371.24 311.465 368.947 313.306 367.067C314.788 365.555 316.405 364.428 318.11 363.563C316.937 352.169 318.785 339.517 330.081 332.454C335.162 329.278 342.389 328.05 348.747 329.125C355.104 330.199 360.98 333.671 362.687 340.275L363.32 342.721L360.935 341.889C356.347 340.287 351.008 339.467 346.293 339.508C343.938 339.529 341.773 339.764 339.956 340.206C338.123 340.653 336.739 341.287 335.857 342.039C334.062 343.569 332.51 345.419 331.395 347.973C330.422 350.202 329.76 353.02 329.604 356.712C342.504 353.549 353.861 351.64 373.705 350.433C373.61 347.706 373.278 344.123 372.685 339.708C371.704 332.397 370.081 323.289 367.987 312.961L367.983 312.942L351.713 243.256C340.418 252.606 327.231 249.856 312.557 246.797C310.322 246.331 308.052 245.858 305.75 245.419C277.27 239.992 253.654 256.158 239.97 265.525C232.143 270.884 227.565 274.017 227.187 269.61C262.142 225.44 292.584 229.49 315.287 232.509C329.026 234.337 339.931 235.788 347.286 225.945C342.235 206.569 337.198 188.099 332.904 172.892C327.424 153.485 323.178 139.486 321.65 135.648C308.605 102.875 274.167 78.7939 245.716 68.9663C224.46 61.6239 183.203 55.419 140.069 53.8938C96.8416 52.3653 53.0181 55.5925 26.2935 66.3434C20.501 68.6736 12.8235 75.204 4.18843 84.797C-4.27052 94.1944 -13.0797 105.874 -21.186 117.609C-29.281 129.327 -36.6078 141.003 -42.1024 150.34C-44.8502 155.009 -47.1247 159.068 -48.8001 162.235C-50.551 165.545 -51.4632 167.541 -51.7027 168.266C-52.238 169.885 -52.6772 173.432 -52.8616 178.616C-53.0384 183.585 -52.9699 189.466 -52.7582 195.345C-52.3306 207.218 -51.342 218.501 -50.7554 221.82C-47.2467 241.671 -39.9547 259.849 -31.5994 280.663L-31.5987 280.665L-31.5978 280.667C-30.8277 282.586 -30.0487 284.526 -29.2633 286.492C-19.9985 309.676 -9.99157 335.988 -3.46077 370.183C-1.81873 378.781 -2.95066 389.261 -5.39917 399.933C-7.87374 410.718 -11.8195 422.223 -16.2495 433.102C-24.2637 452.784 -34.1469 471.098 -40.3641 479.875C-24.4592 497.414 -2.02172 515.051 21.5662 530.417C43.4821 544.694 67.6937 558.183 92.1401 571.158C89.6653 511.209 90.8649 461.088 125.132 359.879C131.069 340.066 140.153 320.47 150.605 301.261C134.886 347.262 121.99 401.475 140.464 446.471C139.767 414.432 147.504 358.771 177.754 349.086C158.301 368.381 149.039 425.592 157.202 474.27C160.157 477.823 163.406 481.274 166.969 484.612C172.387 488.918 177.829 492.996 183.292 496.865C170.834 468.405 171.643 390.413 205.922 377.192C181.414 413.948 185.469 474.767 201.938 509.232C213.499 516.403 225.143 522.738 236.846 528.401C223.645 505.08 200.143 424.246 240.806 397.21C217.6 431.271 228.785 492.411 258.832 538.262C273.229 544.24 287.695 549.365 302.191 553.935ZM109.627 580.349C100.044 547.205 94.6157 497.292 117.829 405.425C117.651 436.083 128.002 466.949 155.243 497.416C157.857 499.923 160.719 502.428 163.806 504.926C160.723 551.26 164.313 578.833 177.594 616.436C159.747 606.029 142.17 597.058 127.828 589.737C123.61 587.584 119.671 585.573 116.087 583.711C113.937 582.594 111.783 581.473 109.627 580.349ZM346.973 424.097C350.277 419.563 352.18 416.94 353.213 414.402C353.925 412.652 354.239 410.864 353.947 408.23C344.644 408.399 338.485 409.508 333.635 411.521C329.524 413.228 326.129 415.673 322.425 419.189C326.031 421.339 329.116 422.743 332.321 423.573C336.308 424.604 340.759 424.814 346.973 424.097ZM316.709 384.359C318.172 378.654 319.643 376.038 321.024 374.628C321.177 374.472 321.337 374.322 321.507 374.179C322.278 387.353 320.731 393.437 318.681 396.402C317.499 398.113 315.882 399.165 313.207 399.912C313.813 397.442 314.344 394.944 314.855 392.537L314.957 392.059C315.522 389.401 316.071 386.849 316.709 384.359ZM331.113 394.341C332.596 388.417 332.857 380.769 332.122 370.993C332.617 370.918 333.129 370.842 333.657 370.763C335.079 370.552 336.624 370.323 338.293 370.053C339.596 381.089 338.752 387.018 336.781 390.273C335.742 391.988 334.087 393.394 331.113 394.341ZM347.905 391.865C350.126 385.616 350.125 377.597 348.928 367.991C350.45 367.64 352.037 367.248 353.689 366.807C354.719 373.142 355.205 377.99 355.187 381.709C355.166 385.959 354.482 388.12 353.772 389.252C353.205 390.153 352.311 390.909 350.201 391.447C349.522 391.62 348.761 391.759 347.905 391.865ZM297.65 410.687C293.689 417.167 286.608 422.897 270.702 425.046C272.258 417.952 274.832 411.601 278.4 406.129C284.265 397.134 293.034 390.173 305.175 386.173C304.902 387.401 304.642 388.619 304.388 389.813L304.296 390.245C303.761 392.766 303.249 395.176 302.665 397.536C301.429 402.529 299.955 406.917 297.65 410.687Z" fill="#002D40"/>
</svg>
